<svg width="64" height="71" viewBox="0 0 64 71" fill="none" xmlns="http://www.w3.org/2000/svg">
<path d="M21.6737 31.6564C21.5716 31.7609 21.4889 31.887 21.4302 32.0276C21.3715 32.1681 21.3381 32.3202 21.3319 32.4753C21.3256 32.6304 21.3467 32.7853 21.3938 32.9312C21.4409 33.0771 21.5131 33.2112 21.6064 33.3256L22.4372 34.3518C22.9314 34.957 23.2027 35.7444 23.2027 36.6877C23.2027 37.3403 23.6738 37.8108 24.2543 37.8108C24.8348 37.8108 25.3059 37.2244 25.3059 36.5719C25.3059 35.1533 24.8369 33.7985 23.9893 32.7582L23.1586 31.7344C22.9708 31.5028 22.7089 31.3646 22.4305 31.3499C22.1521 31.3353 21.8799 31.4455 21.6737 31.6564ZM40.062 31.7344L39.2312 32.7582C38.3651 33.834 37.8945 35.2393 37.9146 36.6901C37.9146 37.3427 38.3857 37.8132 38.9662 37.8132C39.5467 37.8132 40.0178 37.2268 40.0178 36.5742C40.0178 35.7491 40.2891 34.9618 40.7834 34.3541L41.6142 33.3304C41.7074 33.2159 41.7797 33.0819 41.8268 32.9359C41.8739 32.79 41.8949 32.6351 41.8887 32.48C41.8824 32.325 41.849 32.1728 41.7904 32.0323C41.7317 31.8918 41.649 31.7656 41.5469 31.6611C41.4453 31.5558 41.3262 31.4742 41.1965 31.4208C41.0667 31.3675 40.9289 31.3436 40.7909 31.3504C40.6529 31.3572 40.5174 31.3946 40.3923 31.4605C40.2672 31.5265 40.155 31.6195 40.062 31.7344Z" fill="#53C3D0"/>
<path d="M26.6623 22.6085L24.9924 24.6914L20.3885 27.7957C19.6449 28.3011 19.0295 29.0131 18.6015 29.8631C18.1735 30.7132 17.9473 31.6727 17.9445 32.6495V36.6876C17.9445 37.0011 18.0553 37.3018 18.2525 37.5235C18.4497 37.7452 18.7172 37.8698 18.9961 37.8698C19.275 37.8698 19.5425 37.7452 19.7397 37.5235C19.9369 37.3018 20.0477 37.0011 20.0477 36.6876V32.6495C20.0477 31.5005 20.5946 30.4176 21.4716 29.8242L25.3983 27.1763L27.4847 30.1079C27.5773 30.2376 27.6931 30.344 27.8246 30.4202C27.9561 30.4963 28.1004 30.5406 28.2481 30.55L28.3049 30.5524C28.5825 30.5524 28.8517 30.4271 29.0494 30.2072L30.5553 28.5144V36.69C30.5553 37.0035 30.6661 37.3042 30.8633 37.5259C31.0606 37.7476 31.328 37.8721 31.6069 37.8721C31.8858 37.8721 32.1533 37.7476 32.3505 37.5259C32.5477 37.3042 32.6585 37.0035 32.6585 36.69V28.4742L34.1981 30.2072C34.3958 30.4286 34.6636 30.5527 34.9426 30.5524L34.9994 30.55C35.1473 30.5415 35.2918 30.4976 35.4235 30.4214C35.5551 30.3452 35.6708 30.2383 35.7629 30.1079L37.845 27.1833L41.7591 29.8242C42.6382 30.4176 43.183 31.5005 43.183 32.6495V36.6876C43.183 37.0011 43.2938 37.3018 43.491 37.5235C43.6882 37.7452 43.9557 37.8698 44.2346 37.8698C44.5135 37.8698 44.7809 37.7452 44.9782 37.5235C45.1754 37.3018 45.2862 37.0011 45.2862 36.6876V32.6495C45.2862 30.673 44.3502 28.8147 42.8422 27.7957L38.2762 24.7151L36.5873 22.6085C36.4843 22.4809 36.3412 22.4312 36.2066 22.3674V20.5847C36.9864 19.845 37.6138 18.9235 38.0452 17.8841C38.4766 16.8447 38.7019 15.7123 38.7052 14.5653V11.8157L39.7547 6.36139C39.8462 5.80011 39.8367 5.22393 39.7269 4.66683C39.6171 4.10973 39.4092 3.58298 39.1154 3.11764C38.8252 2.65122 38.4548 2.255 38.026 1.95245C37.5971 1.6499 37.1187 1.44717 36.6189 1.35627L30.0863 0.129228C29.5467 0.0261914 28.9936 0.0574766 28.466 0.220877C27.9383 0.384277 27.449 0.675813 27.0325 1.07493C26.4111 1.66679 25.9784 2.47027 25.8 3.36352C24.9981 3.63471 24.3184 4.23925 23.8991 5.05405C23.4798 5.86885 23.3526 6.83264 23.5433 7.74921L24.5381 11.8346V14.5653C24.542 15.746 24.7807 16.9107 25.2366 17.9743C25.6926 19.0378 26.3543 19.9734 27.1734 20.7124V22.2846C26.9789 22.3351 26.8014 22.4476 26.6623 22.6085ZM28.3911 27.6018L27.0283 25.6844L27.6992 24.8475L29.8276 25.987L28.3911 27.6018ZM34.8564 27.5995L33.4199 25.987L35.5483 24.8475L36.2193 25.6844L34.8564 27.5995ZM25.8273 6.06822C25.9381 5.91272 26.0786 5.78731 26.2385 5.70134C26.3984 5.61538 26.5734 5.57107 26.7506 5.57173C27.3311 5.57173 27.8022 4.96176 27.8022 4.30922C27.803 4.03762 27.8563 3.76945 27.9582 3.52322C28.0602 3.27699 28.2084 3.05856 28.3928 2.88301C28.5772 2.70746 28.7932 2.57897 29.026 2.50642C29.2589 2.43386 29.5029 2.41896 29.7414 2.46274L36.2739 3.68979C36.4986 3.73038 36.7136 3.82143 36.9062 3.95751C37.0988 4.09359 37.265 4.27191 37.395 4.48181C37.6642 4.90974 37.7672 5.42751 37.6915 5.90509L37.0921 9.01408L36.5978 8.32135C36.4993 8.18334 36.3744 8.07196 36.2324 7.99544C36.0905 7.91892 35.935 7.87921 35.7776 7.87924H27.4636C27.3059 7.87898 27.1502 7.91883 27.0082 7.9958C26.8661 8.07277 26.7414 8.18488 26.6434 8.32372L26.0629 9.13702L25.5876 7.19124C25.5496 6.99585 25.5515 6.79333 25.593 6.59886C25.6345 6.40438 25.7146 6.22298 25.8273 6.06822ZM26.6413 12.1018L27.9684 10.2459H35.2749L36.602 12.0994V14.5653C36.602 17.6531 34.3663 20.1639 31.6217 20.1639C28.877 20.1639 26.6434 17.6507 26.6434 14.5653V12.1018H26.6413ZM31.6217 22.5281C32.4987 22.5281 33.3274 22.3248 34.1034 21.9962V23.0034L31.6238 24.3297L29.2766 23.0743V22.0458C30.028 22.3561 30.8212 22.5192 31.6217 22.5281ZM21.0993 60.3609C21.2898 60.3622 21.4769 60.3041 21.6399 60.193L31.6153 53.4644L41.5908 60.193C41.829 60.3322 42.1055 60.364 42.3639 60.2818C42.6222 60.1996 42.8429 60.0097 42.9808 59.7508C43.1188 59.4919 43.1637 59.1836 43.1062 58.8888C43.0488 58.5939 42.8935 58.3349 42.6719 58.1645L32.667 51.4169V41.4469C32.667 41.1333 32.5562 40.8327 32.3589 40.611C32.1617 40.3893 31.8943 40.2647 31.6153 40.2647C31.3364 40.2647 31.069 40.3893 30.8718 40.611C30.6745 40.8327 30.5637 41.1333 30.5637 41.4469V51.4169L20.5588 58.1645C20.3614 58.2973 20.2082 58.4993 20.1227 58.7395C20.0372 58.9796 20.0241 59.2446 20.0854 59.4939C20.1468 59.7432 20.2792 59.963 20.4623 60.1196C20.6455 60.2762 20.8692 60.361 21.0993 60.3609ZM2.91083 62.0466C2.05786 62.4104 1.32306 63.0564 0.803392 63.8993C0.283722 64.7422 0.00360455 65.7424 0 66.768V69.8179C0 70.1314 0.110793 70.4321 0.308007 70.6538C0.50522 70.8755 0.772699 71 1.0516 71C1.3305 71 1.59798 70.8755 1.7952 70.6538C1.99241 70.4321 2.1032 70.1314 2.1032 69.8179V66.768C2.1032 65.6568 2.72575 64.6496 3.64906 64.2572L7.40538 62.6731C8.04475 63.8576 9.1952 64.6614 10.516 64.6614C11.8368 64.6614 12.9852 63.86 13.6245 62.6731L17.383 64.2572C18.3063 64.6496 18.9288 65.6568 18.9288 66.768V69.8179C18.9288 70.1314 19.0396 70.4321 19.2368 70.6538C19.434 70.8755 19.7015 71 19.9804 71C20.2593 71 20.5268 70.8755 20.724 70.6538C20.9212 70.4321 21.032 70.1314 21.032 69.8179V66.768C21.032 64.678 19.8626 62.7795 18.1212 62.0466L14.1609 60.3774V58.3678C14.6891 57.8097 15.1103 57.1362 15.3985 56.3885C15.6868 55.6408 15.836 54.8348 15.8371 54.02V51.7905L16.8319 47.6909C16.9067 47.233 16.8995 46.7629 16.8106 46.3083C16.7218 45.8536 16.5531 45.4234 16.3145 45.0429C16.077 44.6599 15.7735 44.3345 15.422 44.0859C15.0704 43.8374 14.6781 43.6708 14.2681 43.596L9.37608 42.6786C8.62671 42.5396 7.85804 42.7159 7.21704 43.1739C6.57605 43.6319 6.10771 44.3394 5.90159 45.1611C5.43474 45.3527 5.02319 45.6838 4.71117 46.1186C4.19168 46.8445 3.99188 47.7783 4.22534 48.8966L5.15074 51.3885V54.02C5.15074 55.7553 5.81956 57.3086 6.86906 58.408V60.3774L2.91083 62.0466ZM7.25395 54.02V52.2491C7.26446 52.2326 7.28129 52.2255 7.29181 52.2066L7.98376 50.8424H13.042L13.736 51.9867V54.02C13.736 56.0296 12.2827 57.6633 10.495 57.6633C8.70726 57.6633 7.25395 56.0296 7.25395 54.02ZM6.34747 47.6034C6.40557 47.5214 6.47952 47.4554 6.5637 47.4103C6.64788 47.3653 6.74008 47.3424 6.83331 47.3433C7.41379 47.3433 7.88491 46.7546 7.88491 46.1021C7.88397 45.9417 7.91459 45.7831 7.97459 45.6376C8.03458 45.492 8.12246 45.3633 8.23194 45.2604C8.34079 45.1557 8.46889 45.0794 8.60706 45.0369C8.74523 44.9944 8.89005 44.9867 9.03115 45.0145L13.9232 45.9319C14.0574 45.9563 14.1858 46.0111 14.3008 46.0927C14.4157 46.1744 14.5148 46.2813 14.592 46.4071C14.7354 46.6274 14.8027 46.8988 14.7813 47.1707L14.3691 48.8659C14.2709 48.745 14.1514 48.6484 14.0181 48.5825C13.8848 48.5165 13.7407 48.4826 13.5951 48.4829H7.36962C7.20252 48.4825 7.03778 48.5272 6.8892 48.6132C6.74063 48.6991 6.61256 48.8239 6.51572 48.977L6.22127 48.1992C6.20122 48.0956 6.20215 47.9882 6.22399 47.8851C6.24584 47.782 6.28804 47.6857 6.34747 47.6034ZM10.495 60.0275C11.0439 60.0275 11.5613 59.9069 12.0598 59.7343V60.5618C12.045 61.0107 11.876 61.4356 11.5883 61.7473C11.3006 62.059 10.9166 62.2332 10.5171 62.2332C10.1175 62.2332 9.7335 62.059 9.4458 61.7473C9.1581 61.4356 8.98911 61.0107 8.97437 60.5618V59.7509C9.4581 59.914 9.96287 60.0275 10.495 60.0275ZM62.0445 71C62.3234 71 62.5909 70.8755 62.7881 70.6538C62.9853 70.4321 63.0961 70.1314 63.0961 69.8179V66.768C63.0961 64.678 61.9267 62.7795 60.1853 62.0466L56.7465 60.5973L56.227 59.6918V58.3678C56.7553 57.8097 57.1764 57.1362 57.4647 56.3885C57.7529 55.6408 57.9022 54.8348 57.9033 54.02V51.7905L58.8981 47.6909C58.9729 47.233 58.9657 46.7629 58.8768 46.3083C58.788 45.8536 58.6193 45.4234 58.3807 45.0429C58.1432 44.6599 57.8397 44.3345 57.4881 44.0859C57.1366 43.8374 56.7442 43.6708 56.3343 43.596L51.4422 42.6786C51.0005 42.5962 50.5481 42.6227 50.1163 42.7562C49.6845 42.8897 49.2837 43.127 48.9415 43.4518C48.4683 43.901 48.1339 44.4897 47.9678 45.1611C47.5009 45.3527 47.0894 45.6838 46.7773 46.1186C46.2579 46.8445 46.058 47.7783 46.2915 48.8966L47.2169 51.3885V54.02C47.2169 55.7553 47.8857 57.3086 48.9352 58.408V59.6918L48.4157 60.5949L44.977 62.0442C44.124 62.4081 43.3892 63.054 42.8696 63.897C42.3499 64.7399 42.0698 65.7401 42.0662 66.7656V69.8155C42.0662 70.129 42.177 70.4297 42.3742 70.6514C42.5714 70.8731 42.8389 70.9976 43.1178 70.9976C43.3967 70.9976 43.6641 70.8731 43.8614 70.6514C44.0586 70.4297 44.1694 70.129 44.1694 69.8155V67.9832L46.5018 63.9238L49.4736 62.6707C50.113 63.8552 51.2635 64.6591 52.5843 64.6591C53.9051 64.6591 55.0534 63.8576 55.6928 62.6707L58.6646 63.9214L60.9992 67.9832V69.8179C60.9929 70.4704 61.464 71 62.0445 71ZM49.318 54.02V52.2491C49.3285 52.2326 49.3454 52.2255 49.3559 52.2066L50.0478 50.8424H55.106L55.8001 51.9867V54.02C55.8001 56.0296 54.3468 57.6633 52.559 57.6633C50.7713 57.6633 49.318 56.0296 49.318 54.02ZM48.4115 47.6034C48.4696 47.5214 48.5436 47.4554 48.6278 47.4103C48.7119 47.3653 48.8041 47.3424 48.8974 47.3433C49.4779 47.3433 49.949 46.7546 49.949 46.1021C49.948 45.9417 49.9787 45.7831 50.0386 45.6376C50.0986 45.492 50.1865 45.3633 50.296 45.2604C50.4049 45.1557 50.533 45.0794 50.6711 45.0369C50.8093 44.9944 50.9541 44.9867 51.0952 45.0145L55.9873 45.9319C56.1215 45.9563 56.2499 46.0111 56.3648 46.0927C56.4797 46.1744 56.5788 46.2813 56.6561 46.4071C56.7995 46.6274 56.8668 46.8988 56.8454 47.1707L56.4331 48.8659C56.335 48.745 56.2154 48.6484 56.0822 48.5825C55.9489 48.5165 55.8048 48.4826 55.6592 48.4829H49.4337C49.2666 48.4825 49.1018 48.5272 48.9533 48.6132C48.8047 48.6991 48.6766 48.8239 48.5798 48.977L48.2853 48.1992C48.2653 48.0956 48.2662 47.9882 48.2881 47.8851C48.3099 47.782 48.3521 47.6857 48.4115 47.6034ZM52.5801 62.2972C52.1706 62.2972 51.778 62.1144 51.4885 61.7889C51.199 61.4635 51.0363 61.0221 51.0363 60.5618V59.7509C51.5222 59.914 52.0269 60.0299 52.559 60.0299C53.108 60.0299 53.6254 59.9093 54.1238 59.7367V60.5642C54.1233 61.024 53.9604 61.4648 53.6709 61.7898C53.3815 62.1147 52.9891 62.2972 52.5801 62.2972Z" fill="#53C3D0"/>
</svg>
